# xmcd CD database file
#
# Track frame offsets:
#	150
#	16502
#	35152
#
# Disc length: 687 seconds
#
# Revision: 0
# Processed by: cddbd v1.5.1PL0 Copyright (c) Steve Scherf et al.
# Submitted via: CDex 1.51
#
DISCID=1802ad03
DTITLE=奥居　香 - ひまわり (Single)
DYEAR=1998
DGENRE=Pop
TTITLE0=ひまわり
TTITLE1=彼女
TTITLE2=ひまわり (Backing Track)
EXTD=YEAR: 1998
EXTT0=
EXTT1=
EXTT2=
PLAYORDER=
